<svg xmlns="http://www.w3.org/2000/svg" width="50" height="50" viewBox="0 0 841.9 595.3" fill="#61DAFB">
  <g>
    <circle cx="420.9" cy="296.5" r="45.7" />
    <path d="M520.5 78.1C467 78.1 422.7 119.9 420.9 174.8 419 119.9 374.8 78.1 321.3 78.1c-53.5 0-97.9 41.8-99.7 96.7-1.7-54.9-46.1-96.7-99.7-96.7C53.5 78.1 9.1 119.9 7.3 174.8-.5 296.5 420.9 593.7 420.9 593.7S841.8 296.5 841.8 174.8C840 119.9 795.5 78.1 742 78.1zM420.9 515.5S193.4 337.7 193.4 240.8c0-53.5 41.8-97.9 96.7-99.7 54.9-1.7 96.7-46.1 96.7-99.7s41.8-97.9 99.7-99.7c53.5 0 97.9 41.8 99.7 96.7 1.7-54.9 46.1-96.7 99.7-96.7 53.5 0 97.9 41.8 99.7 96.7 1.7-54.9 46.1-96.7 99.7-96.7 53.5 0 97.9 41.8 99.7 96.7-.1 147.3-420.9 340.7-420.9 340.7z" />
  </g>
</svg>
